<svg width="24" height="24" viewBox="0 0 24 24" fill="none" xmlns="http://www.w3.org/2000/svg">
<path d="M17.6569 17.1421C16.7258 18.1063 14.7848 20.1162 13.4379 21.511C12.6516 22.3252 11.3487 22.3255 10.5624 21.5113C9.23897 20.1409 7.33551 18.1698 6.34315 17.1421C3.21895 13.9069 3.21895 8.66162 6.34315 5.42641C9.46734 2.1912 14.5327 2.1912 17.6569 5.42641C20.781 8.66162 20.781 13.9069 17.6569 17.1421Z" stroke="#689C36" stroke-width="2" stroke-linecap="round" stroke-linejoin="round"/>
<path d="M15 11.2843C15 13 13.6569 14.3909 12 14.3909C10.3431 14.3909 9 13 9 11.2843C9 9.56854 10.3431 8.17767 12 8.17767C13.6569 8.17767 15 9.56854 15 11.2843Z" stroke="#689C36" stroke-width="2" stroke-linecap="round" stroke-linejoin="round"/>
</svg>
