<svg width="28" height="28" viewBox="0 0 28 28" fill="none" xmlns="http://www.w3.org/2000/svg">
<path fill-rule="evenodd" clip-rule="evenodd" d="M5.08317 7.58325C5.08317 7.16904 5.41896 6.83325 5.83317 6.83325H18.0832C18.4974 6.83325 18.8332 7.16904 18.8332 7.58325V10.303H22.7139C22.9984 10.303 23.2584 10.4639 23.3852 10.7185L25.7545 15.4734C25.8062 15.5773 25.8332 15.6918 25.8332 15.8078V18.7636C25.8332 19.1778 25.4974 19.5136 25.0832 19.5136H23.782C23.4603 20.3796 22.5973 20.9996 21.5832 20.9996C20.569 20.9996 19.706 20.3796 19.3843 19.5136H18.0832H13.2825C12.9612 20.3803 12.0978 21.0009 11.0832 21.0009C10.0685 21.0009 9.20517 20.3803 8.88386 19.5136H5.83317C5.41896 19.5136 5.08317 19.1778 5.08317 18.7636V16.9434H2.9165C2.50229 16.9434 2.1665 16.6076 2.1665 16.1934C2.1665 15.7792 2.50229 15.4434 2.9165 15.4434H5.83317H6.91907C7.33328 15.4434 7.66907 15.7792 7.66907 16.1934C7.66907 16.6076 7.33328 16.9434 6.91907 16.9434H6.58317V18.0136H8.8848C9.20685 17.1482 10.0695 16.5288 11.0832 16.5288C12.0968 16.5288 12.9595 17.1482 13.2815 18.0136H17.3332V11.053V8.33325H6.58317V8.76089H6.5835H6.5878H6.59211H6.59643H6.60076H6.60509H6.60944H6.6138H6.61816H6.62254H6.62692H6.63132H6.63572H6.64013H6.64455H6.64899H6.65343H6.65787H6.66233H6.6668H6.67128H6.67576H6.68025H6.68476H6.68927H6.69379H6.69832H6.70286H6.70741H6.71196H6.71653H6.7211H6.72568H6.73028H6.73488H6.73948H6.7441H6.74873H6.75336H6.75801H6.76266H6.76732H6.77199H6.77666H6.78135H6.78604H6.79074H6.79545H6.80017H6.8049H6.80964H6.81438H6.81913H6.82389H6.82866H6.83344H6.83822H6.84301H6.84782H6.85262H6.85744H6.86227H6.8671H6.87194H6.87679H6.88164H6.88651H6.89138H6.89626H6.90115H6.90605H6.91095H6.91586H6.92078H6.92571H6.93064H6.93558H6.94053H6.94549H6.95045H6.95543H6.96041H6.96539H6.97039H6.97539H6.9804H6.98542H6.99044H6.99547H7.00051H7.00556H7.01061H7.01567H7.02074H7.02581H7.0309H7.03598H7.04108H7.04618H7.05129H7.05641H7.06154H7.06667H7.07181H7.07695H7.0821H7.08726H7.09243H7.0976H7.10278H7.10797H7.11316H7.11836H7.12357H7.12878H7.134H7.13923H7.14446H7.1497H7.15494H7.1602H7.16546H7.17072H7.17599H7.18127H7.18656H7.19185H7.19715H7.20245H7.20776H7.21308H7.2184H7.22373H7.22906H7.23441H7.23975H7.24511H7.25047H7.25583H7.2612H7.26658H7.27197H7.27735H7.28275H7.28815H7.29356H7.29897H7.30439H7.30982H7.31525H7.32068H7.32613H7.33157H7.33703H7.34249H7.34795H7.35342H7.3589H7.36438H7.36987H7.37536H7.38086H7.38636H7.39187H7.39739H7.40291H7.40843H7.41396H7.4195H7.42504H7.43059H7.43614H7.4417H7.44726H7.45283H7.4584H7.46398H7.46956H7.47515H7.48074H7.48634H7.49194H7.49755H7.50316H7.50878H7.5144H7.52003H7.52566H7.5313H7.53694H7.54259H7.54824H7.5539H7.55956H7.56522C7.97943 8.76089 8.31522 9.09668 8.31522 9.51089C8.31522 9.9251 7.97943 10.2609 7.56522 10.2609H7.55956H7.5539H7.54824H7.54259H7.53694H7.5313H7.52566H7.52003H7.5144H7.50878H7.50316H7.49755H7.49194H7.48634H7.48074H7.47515H7.46956H7.46398H7.4584H7.45283H7.44726H7.4417H7.43614H7.43059H7.42504H7.4195H7.41396H7.40843H7.40291H7.39739H7.39187H7.38636H7.38086H7.37536H7.36987H7.36438H7.3589H7.35342H7.34795H7.34249H7.33703H7.33157H7.32613H7.32068H7.31525H7.30982H7.30439H7.29897H7.29356H7.28815H7.28275H7.27735H7.27197H7.26658H7.2612H7.25583H7.25047H7.24511H7.23975H7.23441H7.22906H7.22373H7.2184H7.21308H7.20776H7.20245H7.19715H7.19185H7.18656H7.18127H7.17599H7.17072H7.16546H7.1602H7.15494H7.1497H7.14446H7.13923H7.134H7.12878H7.12357H7.11836H7.11316H7.10797H7.10278H7.0976H7.09243H7.08726H7.0821H7.07695H7.07181H7.06667H7.06154H7.05641H7.05129H7.04618H7.04108H7.03598H7.0309H7.02581H7.02074H7.01567H7.01061H7.00556H7.00051H6.99547H6.99044H6.98542H6.9804H6.97539H6.97039H6.96539H6.96041H6.95543H6.95045H6.94549H6.94053H6.93558H6.93064H6.92571H6.92078H6.91586H6.91095H6.90605H6.90115H6.89626H6.89138H6.88651H6.88164H6.87679H6.87194H6.8671H6.86227H6.85744H6.85262H6.84782H6.84301H6.83822H6.83344H6.82866H6.82389H6.81913H6.81438H6.80964H6.8049H6.80017H6.79545H6.79074H6.78604H6.78135H6.77666H6.77199H6.76732H6.76266H6.75801H6.75336H6.74873H6.7441H6.73948H6.73488H6.73028H6.72568H6.7211H6.71653H6.71196H6.70741H6.70286H6.69832H6.69379H6.68927H6.68476H6.68025H6.67576H6.67128H6.6668H6.66233H6.65787H6.65343H6.64899H6.64455H6.64013H6.63572H6.63132H6.62692H6.62254H6.61816H6.6138H6.60944H6.60509H6.60076H6.59643H6.59211H6.5878H6.5835H6.57921H6.57493H6.57065H6.56639H6.56214H6.5579H6.55366H6.54944H6.54523H6.54102H6.53683H6.53264H6.52847H6.5243H6.52015H6.51601H6.51187H6.50774H6.50363H6.49952H6.49543H6.49134H6.48727H6.4832H6.47915H6.4751H6.47107H6.46705H6.46303H6.45903H6.45503H6.45105H6.44708H6.44311H6.43916H6.43522H6.43129H6.42737H6.42346H6.41956H6.41567H6.41179H6.40792H6.40406H6.40021H6.39638H6.39255H6.38874H6.38493H6.38114H6.37736H6.37358H6.36982H6.36607H6.36233H6.3586H6.35488H6.35118H6.34748H6.3438H6.34012H6.33646H6.33281H6.32917H6.32554H6.32192H6.31831H6.31471H6.31113H6.30756H6.30399H6.30044H6.2969H6.29337H6.28986H6.28635H6.28286H6.27937H6.2759H6.27244H6.26899H6.26556H6.26213H6.25872H6.25532H6.25193H6.24855H6.24518H6.24183H6.23848H6.23515H6.23183H6.22852H6.22523H6.22194H6.21867H6.21541H6.21216H6.20892H6.2057H6.20249H6.19929H6.1961H6.19292H6.18976H6.1866H6.18346H6.18034H6.17722H6.17412H6.17103H6.16795H6.16488H6.16183H6.15879H6.15576H6.15274H6.14974H6.14674H6.14376H6.1408H6.13784H6.1349H6.13197H6.12906H6.12615H6.12326H6.12038H6.11752H6.11466H6.11182H6.109H6.10618H6.10338H6.10059H6.09782H6.09505H6.0923H6.08957H6.08684H6.08413H6.08143H6.07875H6.07608H6.07342H6.07077H6.06814H6.06552H6.06292H6.06032H6.05774H6.05518H6.05262H6.05009H6.04756H6.04505H6.04255H6.04006H6.03759H6.03513H6.03269H6.03025H6.02784H6.02543H6.02304H6.02066H6.0183H6.01595H6.01362H6.01129H6.00898H6.00669H6.00441H6.00214H5.99989H5.99765H5.99542H5.99321H5.99102H5.98883H5.98666H5.98451H5.98237H5.98024H5.97813H5.97603H5.97395H5.97187H5.96982H5.96778H5.96575H5.96374H5.96174H5.95975H5.95778H5.95583H5.95389H5.95196H5.95005H5.94815H5.94627H5.9444H5.94254H5.9407H5.93888H5.93707H5.93527H5.93349H5.93173H5.92998H5.92824H5.92652H5.92481H5.92312H5.92144H5.91978H5.91813H5.9165H5.91488H5.91328H5.91169H5.91012H5.90857H5.90702H5.9055H5.90398H5.90249H5.90101H5.89954H5.89809H5.89666H5.89524H5.89383H5.89244H5.89107H5.88971H5.88837H5.88704H5.88573H5.88443H5.88315H5.88188H5.88063H5.8794H5.87818H5.87698H5.87579H5.87462H5.87346H5.87232H5.8712H5.87009H5.869H5.86792H5.86686H5.86581H5.86479H5.86377H5.86278H5.86179H5.86083H5.85988H5.85895H5.85803H5.85713H5.85625H5.85538H5.85453H5.85369H5.85287H5.85207H5.85128H5.85051H5.84976H5.84902H5.8483H5.84759H5.84691H5.84623H5.84558H5.84494H5.84432H5.84371H5.84312H5.84255H5.842H5.84146H5.84093H5.84043H5.83994H5.83947H5.83901H5.83857H5.83815H5.83775H5.83736H5.83699H5.83664H5.8363H5.83598H5.83568H5.83539H5.83513H5.83487H5.83464H5.83442H5.83422H5.83404H5.83388H5.83373H5.8336H5.83348H5.83339H5.83331H5.83325H5.83321H5.83318L5.83317 9.51089V10.2609H4.0024C3.58819 10.2609 3.2524 9.9251 3.2524 9.51089C3.2524 9.09668 3.58819 8.76089 4.0024 8.76089H5.08317V7.58325ZM19.3843 18.0136C19.706 17.1475 20.569 16.5275 21.5832 16.5275C22.5973 16.5275 23.4603 17.1475 23.782 18.0136H24.3332V15.9844L22.2497 11.803H18.8332V18.0136H19.3843ZM5.83317 10.303C6.24738 10.303 6.58317 10.6388 6.58317 11.053V13.6442H10.3652C10.7794 13.6442 11.1152 13.98 11.1152 14.3942C11.1152 14.8085 10.7794 15.1442 10.3652 15.1442H5.83317H4.43317C4.01896 15.1442 3.68317 14.8085 3.68317 14.3942C3.68317 13.98 4.01896 13.6442 4.43317 13.6442H5.08317V12.2136C4.94661 12.3565 4.75413 12.4455 4.54086 12.4455H2.9165C2.50229 12.4455 2.1665 12.1098 2.1665 11.6955C2.1665 11.2813 2.50229 10.9455 2.9165 10.9455H4.54086C4.75413 10.9455 4.94661 11.0346 5.08317 11.1775V11.053C5.08317 10.6388 5.41896 10.303 5.83317 10.303ZM11.0832 19.5009C11.6042 19.5009 11.9165 19.1118 11.9165 18.7648C11.9165 18.4179 11.6042 18.0288 11.0832 18.0288C10.5621 18.0288 10.2498 18.4179 10.2498 18.7648C10.2498 19.1118 10.5621 19.5009 11.0832 19.5009ZM22.4165 18.7636C22.4165 19.1105 22.1042 19.4996 21.5832 19.4996C21.0621 19.4996 20.7498 19.1105 20.7498 18.7636C20.7498 18.4166 21.0621 18.0275 21.5832 18.0275C22.1042 18.0275 22.4165 18.4166 22.4165 18.7636Z" fill="#F7FFFA"/>
</svg>
