<svg width="24" height="24" viewBox="0 0 24 24" fill="none" xmlns="http://www.w3.org/2000/svg">
<path d="M3.51097 3L6.89618 6.58916M20.4882 21L17.1033 17.4112M13.7679 18.8246C13.1953 18.9398 12.6043 19 12 19C7.77678 19 4.20185 16.0571 3 12C3.32719 10.8955 3.83024 9.87361 4.47436 8.97118M9.99879 9.87868C10.5108 9.33579 11.2182 9 11.9996 9C13.5623 9 14.8291 10.3431 14.8291 12C14.8291 12.8284 14.5124 13.5784 14.0004 14.1213M9.99879 9.87868L14.0004 14.1213M9.99879 9.87868L6.89618 6.58916M14.0004 14.1213L6.89618 6.58916M14.0004 14.1213L17.1033 17.4112M6.89618 6.58916C8.36738 5.58354 10.1194 5 12 5C16.2232 5 19.7982 7.94291 21 12C20.3333 14.2507 18.9362 16.1585 17.1033 17.4112" stroke="#191A19" stroke-width="2" stroke-linecap="round" stroke-linejoin="round"/>
</svg>
