<svg width="28" height="28" viewBox="0 0 28 28" fill="none" xmlns="http://www.w3.org/2000/svg">
<g clip-path="url(#clip0_1054_21870)">
<path fill-rule="evenodd" clip-rule="evenodd" d="M5.06706 0.166748C4.68644 0.166748 4.33882 0.38282 4.17035 0.724123L0.264426 8.63708C0.196477 8.77474 0.161133 8.92619 0.161133 9.0797H1.16113C0.161133 9.0797 0.161133 9.08006 0.161133 9.08043L0.161134 9.08124L0.161138 9.08307L0.161157 9.08761L0.161266 9.10016L0.161954 9.13868C0.162694 9.17013 0.164096 9.21304 0.166747 9.2659C0.172037 9.37141 0.182365 9.51787 0.202604 9.6932C0.242653 10.0401 0.323589 10.5187 0.490743 11.0239C0.756335 11.8266 1.3031 12.8607 2.39309 13.39V26.7317C2.39309 27.284 2.84081 27.7317 3.39309 27.7317H7.29902H11.7629H24.5967C25.149 27.7317 25.5967 27.284 25.5967 26.7317V13.39C26.6867 12.8607 27.2334 11.8266 27.499 11.0239C27.6662 10.5187 27.7471 10.0401 27.7872 9.6932C27.8074 9.51787 27.8177 9.37141 27.823 9.2659C27.8257 9.21304 27.8271 9.17013 27.8278 9.13868L27.8285 9.10016L27.8286 9.08761L27.8286 9.08307L27.8286 9.08124V9.08043C27.8286 9.08006 27.8286 9.0797 26.8286 9.0797H27.8286C27.8286 8.92619 27.7933 8.77474 27.7254 8.63708L23.8194 0.724123C23.651 0.38282 23.3033 0.166748 22.9227 0.166748H5.06706ZM5.68864 2.16675L2.76994 8.0797H7.29902H13.9949H20.6908H25.2198L22.3011 2.16675H5.68864ZM2.38951 10.3956C2.35435 10.2894 2.32446 10.1833 2.29907 10.0797H6.12636C6.08488 10.2145 6.03392 10.3528 5.97147 10.4891C5.81326 10.8343 5.59541 11.1365 5.29845 11.3524C5.0122 11.5606 4.59423 11.7318 3.95108 11.7318C3.81394 11.7318 3.69484 11.719 3.59124 11.6981C2.99669 11.5779 2.62343 11.1026 2.38951 10.3956ZM6.47476 12.9699C6.80849 12.7272 7.07931 12.4465 7.29902 12.1533C7.51873 12.4465 7.78954 12.7272 8.12327 12.9699C8.77863 13.4465 9.61614 13.7318 10.647 13.7318C11.6778 13.7318 12.5153 13.4465 13.1706 12.9699C13.5044 12.7272 13.7752 12.4465 13.9949 12.1533C14.2146 12.4465 14.4854 12.7272 14.8191 12.9699C15.4745 13.4465 16.312 13.7318 17.3428 13.7318C18.3736 13.7318 19.2112 13.4465 19.8665 12.9699C20.2002 12.7272 20.4711 12.4465 20.6908 12.1533C20.9105 12.4465 21.1813 12.7272 21.515 12.9699C22.0741 13.3765 22.7656 13.6438 23.5967 13.7136V25.7317H12.7629V17.6013H11.7629C12.7629 17.6013 12.7629 17.6004 12.7629 17.5995L12.7629 17.5977L12.7629 17.5939L12.7628 17.5859L12.7624 17.5683C12.7621 17.5558 12.7615 17.5419 12.7605 17.5267C12.7587 17.4962 12.7555 17.4601 12.7501 17.4192C12.7394 17.3376 12.7199 17.2351 12.6844 17.1189C12.6128 16.8844 12.4759 16.5949 12.2211 16.3169C11.6929 15.7408 10.8245 15.384 9.53098 15.384C8.2374 15.384 7.36904 15.7408 6.84087 16.3169C6.58603 16.5949 6.4492 16.8844 6.37754 17.1189C6.34203 17.2351 6.32253 17.3376 6.31184 17.4192C6.30649 17.4601 6.30329 17.4962 6.30142 17.5267C6.30049 17.5419 6.29989 17.5558 6.29952 17.5683L6.29913 17.5859L6.29904 17.5939L6.29902 17.5977L6.29902 17.5995C6.29902 17.6004 6.29902 17.6013 7.29902 17.6013H6.29902V25.7317H4.39309V13.7136C5.22414 13.6438 5.91573 13.3765 6.47476 12.9699ZM15.3224 10.4891C15.26 10.3528 15.209 10.2145 15.1676 10.0797H19.5181C19.4766 10.2145 19.4257 10.3528 19.3632 10.4891C19.205 10.8343 18.9872 11.1365 18.6902 11.3524C18.4039 11.5606 17.986 11.7318 17.3428 11.7318C16.6997 11.7318 16.2817 11.5606 15.9955 11.3524C15.6985 11.1365 15.4806 10.8343 15.3224 10.4891ZM22.0183 10.4891C21.9559 10.3528 21.9049 10.2145 21.8634 10.0797H25.6907C25.6653 10.1833 25.6354 10.2894 25.6003 10.3956C25.3664 11.1026 24.9931 11.5779 24.3985 11.6981C24.2949 11.719 24.1758 11.7318 24.0387 11.7318C23.3955 11.7318 22.9776 11.5606 22.6913 11.3524C22.3944 11.1365 22.1765 10.8343 22.0183 10.4891ZM8.47168 10.0797H12.8222C12.7808 10.2145 12.7298 10.3528 12.6673 10.4891C12.5091 10.8343 12.2913 11.1365 11.9943 11.3524C11.7081 11.5606 11.2901 11.7318 10.647 11.7318C10.0038 11.7318 9.58584 11.5606 9.29958 11.3524C9.00262 11.1365 8.78477 10.8343 8.62657 10.4891C8.56411 10.3528 8.51315 10.2145 8.47168 10.0797ZM10.7629 17.6884V25.7317H8.29902V17.6884C8.30283 17.6829 8.30807 17.6761 8.31515 17.6684C8.34498 17.6359 8.59259 17.384 9.53098 17.384C10.4694 17.384 10.717 17.6359 10.7468 17.6684C10.7539 17.6761 10.7591 17.6829 10.7629 17.6884ZM15.67 15.3844C15.1177 15.3844 14.67 15.8321 14.67 16.3844V21.2553C14.67 21.8076 15.1177 22.2553 15.67 22.2553H20.6919C21.2442 22.2553 21.6919 21.8076 21.6919 21.2553V16.3844C21.6919 15.8321 21.2442 15.3844 20.6919 15.3844H15.67ZM16.67 20.2553V17.3844H19.6919V20.2553H16.67Z" fill="#689C36"/>
</g>
<defs>
<clipPath id="clip0_1054_21870">
<rect width="28" height="28" fill="white"/>
</clipPath>
</defs>
</svg>
