<svg id="Layer_1" data-name="Layer 1" xmlns="http://www.w3.org/2000/svg" viewBox="0 0 20 16"><defs><style>.cls-1{fill:none;stroke:#689c36;stroke-linecap:round;stroke-linejoin:round;stroke-width:2px;}.cls-2{fill:#689c36;}</style></defs><path class="cls-1" d="M3,8l7.9,5.3a2.2,2.2,0,0,0,2.2,0L21,8M5,19H19a2,2,0,0,0,2-2V7a2,2,0,0,0-2-2H5A2,2,0,0,0,3,7V17A2,2,0,0,0,5,19Z" transform="translate(-2 -4)"/><path class="cls-2" d="M4.4,7.8,4,7.4a1.3,1.3,0,0,1,.3-1.2A1.5,1.5,0,0,1,5.1,6H19s1.2-.1,1,1.5l-7.5,5a1.1,1.1,0,0,1-1.1-.1Z" transform="translate(-2 -4)"/></svg>