<svg id="Layer_1" data-name="Layer 1" xmlns="http://www.w3.org/2000/svg" viewBox="0 0 18 20.9"><defs><style>.cls-1{fill:#689c36;stroke:#689c36;stroke-linecap:round;stroke-linejoin:round;stroke-width:2px;}.cls-2{fill:#fff;}</style></defs><path class="cls-1" d="M15,16h5l-1.4-1.4a2.5,2.5,0,0,1-.6-1.5V10a6,6,0,0,0-4-5.7V4a1.9,1.9,0,0,0-2-2,2,2,0,0,0-2,2v.3A6.1,6.1,0,0,0,6,10v3.1a2.5,2.5,0,0,1-.5,1.5L4,16H9m0,.1h6.1v1.8a3,3,0,0,1-3,3,2.9,2.9,0,0,1-3-3V16.1Zm6-.1H9M13.1,4" transform="translate(-3 -1)"/><path class="cls-2" d="M10,17.1h4.1a2.7,2.7,0,0,1-.5,2.2,2.1,2.1,0,0,1-1.5.6,2.2,2.2,0,0,1-1.6-.6A2.7,2.7,0,0,1,10,17.1Z" transform="translate(-3 -1)"/></svg>