<svg width="23" height="23" viewBox="0 0 23 23" fill="none" xmlns="http://www.w3.org/2000/svg">
<path d="M20.657 9.56173H13.6258V2.53048C13.6258 1.66769 12.9261 0.967983 12.0633 0.967983H10.5008C9.63797 0.967983 8.93826 1.66769 8.93826 2.53048V9.56173H1.90701C1.04422 9.56173 0.344513 10.2614 0.344513 11.1242V12.6867C0.344513 13.5495 1.04422 14.2492 1.90701 14.2492H8.93826V21.2805C8.93826 22.1433 9.63797 22.843 10.5008 22.843H12.0633C12.9261 22.843 13.6258 22.1433 13.6258 21.2805V14.2492H20.657C21.5198 14.2492 22.2195 13.5495 22.2195 12.6867V11.1242C22.2195 10.2614 21.5198 9.56173 20.657 9.56173Z" fill="#689C36"/>
</svg>
