<svg width="24" height="24" viewBox="0 0 24 24" fill="none" xmlns="http://www.w3.org/2000/svg">
<path d="M3 5.5V8.625H3.65421M3.65421 8.625C4.98933 5.32669 8.22295 3 12 3C16.5896 3 20.3768 6.4354 20.9304 10.875M3.65421 8.625H6M21 18.5V15.375H20.3458M20.3458 15.375C19.0107 18.6733 15.777 21 12 21C7.41043 21 3.62324 17.5646 3.06963 13.125M20.3458 15.375H18" stroke="#A9ACA8" stroke-width="2" stroke-linecap="round" stroke-linejoin="round"/>
<path d="M16 9.22222L12 7L8 9.22222M16 9.22222L12 11.4444M16 9.22222V14.7778L12 17M8 9.22222L12 11.4444M8 9.22222V14.7778L12 17M12 11.4444V17" stroke="#A9ACA8" stroke-width="2" stroke-linejoin="round"/>
</svg>
