<svg width="110" height="110" viewBox="0 0 110 110" fill="none" xmlns="http://www.w3.org/2000/svg">
<path fill-rule="evenodd" clip-rule="evenodd" d="M20.9168 29.791C20.9168 28.6864 21.8123 27.791 22.9168 27.791H71.0418C72.1464 27.791 73.0418 28.6864 73.0418 29.791V41.4222H89.2341C89.9927 41.4222 90.6859 41.8513 91.0242 42.5302L100.332 61.21C100.47 61.487 100.542 61.7924 100.542 62.1019V73.7136C100.542 74.8182 99.6464 75.7136 98.5418 75.7136H93.7199C92.7752 79.6016 89.1365 82.4982 84.7918 82.4982C80.4472 82.4982 76.8084 79.6016 75.8638 75.7136H71.0418H52.4711C51.5283 79.6041 47.8884 82.5032 43.5418 82.5032C39.1953 82.5032 35.5553 79.6041 34.6126 75.7136H22.9168C21.8123 75.7136 20.9168 74.8182 20.9168 73.7136V65.6165H11.4585C10.3539 65.6165 9.4585 64.7211 9.4585 63.6165C9.4585 62.5119 10.3539 61.6165 11.4585 61.6165H22.9168H27.1829C28.2874 61.6165 29.1829 62.5119 29.1829 63.6165C29.1829 64.7211 28.2874 65.6165 27.1829 65.6165H24.9168V71.7136H34.615C35.5616 67.8282 39.199 64.9341 43.5418 64.9341C47.8846 64.9341 51.5221 67.8282 52.4686 71.7136H69.0418V43.4222V31.791H24.9168V35.3639H24.9229H24.9373H24.9519H24.9664H24.981H24.9957H25.0104H25.0251H25.0399H25.0547H25.0696H25.0845H25.0994H25.1144H25.1294H25.1445H25.1596H25.1748H25.19H25.2052H25.2205H25.2358H25.2512H25.2666H25.282H25.2975H25.313H25.3286H25.3442H25.3599H25.3756H25.3913H25.4071H25.4229H25.4387H25.4546H25.4705H25.4865H25.5025H25.5186H25.5346H25.5508H25.5669H25.5831H25.5994H25.6157H25.632H25.6484H25.6648H25.6812H25.6977H25.7142H25.7307H25.7473H25.764H25.7806H25.7973H25.8141H25.8309H25.8477H25.8645H25.8814H25.8984H25.9153H25.9323H25.9494H25.9665H25.9836H26.0007H26.0179H26.0351H26.0524H26.0697H26.087H26.1044H26.1218H26.1393H26.1567H26.1743H26.1918H26.2094H26.227H26.2447H26.2624H26.2801H26.2978H26.3156H26.3335H26.3513H26.3692H26.3872H26.4051H26.4231H26.4412H26.4592H26.4773H26.4955H26.5137H26.5319H26.5501H26.5684H26.5867H26.605H26.6234H26.6418H26.6603H26.6787H26.6972H26.7158H26.7343H26.7529H26.7716H26.7902H26.8089H26.8277H26.8464H26.8652H26.8841H26.9029H26.9218H26.9408H26.9597H26.9787H26.9977H27.0168H27.0358H27.0549H27.0741H27.0933H27.1125H27.1317H27.151H27.1703H27.1896H27.2089H27.2283H27.2477H27.2672H27.2867H27.3062H27.3257H27.3453H27.3648H27.3845H27.4041H27.4238H27.4435H27.4632H27.483H27.5028H27.5226H27.5425H27.5624H27.5823H27.6022H27.6222H27.6422H27.6622H27.6822H27.7023H27.7224H27.7426H27.7627H27.7829H27.8031H27.8234H27.8436H27.8639H27.8842H27.9046H27.925H27.9454H27.9658H27.9862H28.0067H28.0272H28.0478H28.0683H28.0889H28.1095H28.1301H28.1508H28.1715H28.1922H28.2129H28.2337H28.2545H28.2753H28.2961H28.317H28.3379H28.3588H28.3797H28.4007H28.4217H28.4427H28.4637H28.4848H28.5059H28.527H28.5481H28.5692H28.5904H28.6116H28.6328H28.6541H28.6753H28.6966H28.7179H28.7393H28.7606H28.782H28.8034H28.8248H28.8463H28.8678H28.8893H28.9108H28.9323H28.9539H28.9754H28.997H29.0187H29.0403H29.062H29.0837H29.1054H29.1271H29.1488H29.1706H29.1924H29.2142H29.236H29.2579H29.2798H29.3017H29.3236H29.3455H29.3675H29.3894H29.4114H29.4334H29.4555H29.4775H29.4996H29.5217H29.5438H29.5659H29.5881H29.6102H29.6324H29.6546H29.6768H29.6991H29.7213C30.8259 35.3639 31.7213 36.2593 31.7213 37.3639C31.7213 38.4685 30.8259 39.3639 29.7213 39.3639H29.6991H29.6768H29.6546H29.6324H29.6102H29.5881H29.5659H29.5438H29.5217H29.4996H29.4775H29.4555H29.4334H29.4114H29.3894H29.3675H29.3455H29.3236H29.3017H29.2798H29.2579H29.236H29.2142H29.1924H29.1706H29.1488H29.1271H29.1054H29.0837H29.062H29.0403H29.0187H28.997H28.9754H28.9539H28.9323H28.9108H28.8893H28.8678H28.8463H28.8248H28.8034H28.782H28.7606H28.7393H28.7179H28.6966H28.6753H28.6541H28.6328H28.6116H28.5904H28.5692H28.5481H28.527H28.5059H28.4848H28.4637H28.4427H28.4217H28.4007H28.3797H28.3588H28.3379H28.317H28.2961H28.2753H28.2545H28.2337H28.2129H28.1922H28.1715H28.1508H28.1301H28.1095H28.0889H28.0683H28.0478H28.0272H28.0067H27.9862H27.9658H27.9454H27.925H27.9046H27.8842H27.8639H27.8436H27.8234H27.8031H27.7829H27.7627H27.7426H27.7224H27.7023H27.6822H27.6622H27.6422H27.6222H27.6022H27.5823H27.5624H27.5425H27.5226H27.5028H27.483H27.4632H27.4435H27.4238H27.4041H27.3845H27.3648H27.3453H27.3257H27.3062H27.2867H27.2672H27.2477H27.2283H27.2089H27.1896H27.1703H27.151H27.1317H27.1125H27.0933H27.0741H27.0549H27.0358H27.0168H26.9977H26.9787H26.9597H26.9408H26.9218H26.9029H26.8841H26.8652H26.8464H26.8277H26.8089H26.7902H26.7716H26.7529H26.7343H26.7158H26.6972H26.6787H26.6603H26.6418H26.6234H26.605H26.5867H26.5684H26.5501H26.5319H26.5137H26.4955H26.4773H26.4592H26.4412H26.4231H26.4051H26.3872H26.3692H26.3513H26.3335H26.3156H26.2978H26.2801H26.2624H26.2447H26.227H26.2094H26.1918H26.1743H26.1567H26.1393H26.1218H26.1044H26.087H26.0697H26.0524H26.0351H26.0179H26.0007H25.9836H25.9665H25.9494H25.9323H25.9153H25.8984H25.8814H25.8645H25.8477H25.8309H25.8141H25.7973H25.7806H25.764H25.7473H25.7307H25.7142H25.6977H25.6812H25.6648H25.6484H25.632H25.6157H25.5994H25.5831H25.5669H25.5508H25.5346H25.5186H25.5025H25.4865H25.4705H25.4546H25.4387H25.4229H25.4071H25.3913H25.3756H25.3599H25.3442H25.3286H25.313H25.2975H25.282H25.2666H25.2512H25.2358H25.2205H25.2052H25.19H25.1748H25.1596H25.1445H25.1294H25.1144H25.0994H25.0845H25.0696H25.0547H25.0399H25.0251H25.0104H24.9957H24.981H24.9664H24.9519H24.9373H24.9229H24.9084H24.894H24.8797H24.8654H24.8511H24.8369H24.8227H24.8086H24.7945H24.7805H24.7665H24.7525H24.7386H24.7248H24.711H24.6972H24.6835H24.6698H24.6561H24.6425H24.629H24.6155H24.602H24.5886H24.5753H24.5619H24.5487H24.5354H24.5223H24.5091H24.496H24.483H24.47H24.457H24.4441H24.4313H24.4185H24.4057H24.393H24.3803H24.3677H24.3551H24.3426H24.3301H24.3177H24.3053H24.293H24.2807H24.2685H24.2563H24.2441H24.232H24.22H24.208H24.196H24.1841H24.1723H24.1605H24.1487H24.137H24.1254H24.1138H24.1022H24.0907H24.0792H24.0678H24.0565H24.0452H24.0339H24.0227H24.0115H24.0004H23.9894H23.9784H23.9674H23.9565H23.9457H23.9348H23.9241H23.9134H23.9027H23.8921H23.8816H23.8711H23.8607H23.8503H23.8399H23.8296H23.8194H23.8092H23.7991H23.789H23.779H23.769H23.7591H23.7492H23.7394H23.7296H23.7199H23.7102H23.7006H23.6911H23.6816H23.6721H23.6627H23.6534H23.6441H23.6349H23.6257H23.6166H23.6075H23.5985H23.5896H23.5806H23.5718H23.563H23.5543H23.5456H23.5369H23.5284H23.5198H23.5114H23.503H23.4946H23.4863H23.4781H23.4699H23.4617H23.4537H23.4456H23.4377H23.4298H23.4219H23.4141H23.4064H23.3987H23.3911H23.3835H23.376H23.3685H23.3611H23.3538H23.3465H23.3393H23.3321H23.325H23.318H23.311H23.304H23.2971H23.2903H23.2835H23.2768H23.2702H23.2636H23.2571H23.2506H23.2442H23.2378H23.2315H23.2253H23.2191H23.213H23.207H23.201H23.195H23.1891H23.1833H23.1776H23.1719H23.1662H23.1607H23.1551H23.1497H23.1443H23.1389H23.1337H23.1285H23.1233H23.1182H23.1132H23.1082H23.1033H23.0984H23.0936H23.0889H23.0843H23.0797H23.0751H23.0706H23.0662H23.0619H23.0576H23.0533H23.0492H23.0451H23.041H23.0371H23.0331H23.0293H23.0255H23.0218H23.0181H23.0145H23.011H23.0075H23.0041H23.0007H22.9974H22.9942H22.9911H22.988H22.985H22.982H22.9791H22.9763H22.9735H22.9708H22.9681H22.9656H22.9631H22.9606H22.9582H22.9559H22.9537H22.9515H22.9494H22.9473H22.9453H22.9434H22.9416H22.9398H22.9381H22.9364H22.9348H22.9333H22.9318H22.9304H22.9291H22.9279H22.9267H22.9256H22.9245H22.9235H22.9226H22.9218H22.921H22.9203H22.9196H22.919H22.9185H22.9181H22.9177H22.9174H22.9171H22.917H22.9169H15.7245C14.62 39.3639 13.7245 38.4685 13.7245 37.3639C13.7245 36.2593 14.62 35.3639 15.7245 35.3639H20.9168V29.791ZM75.8638 71.7136C76.8084 67.8257 80.4472 64.9291 84.7918 64.9291C89.1365 64.9291 92.7752 67.8257 93.7199 71.7136H96.5418V62.5726L87.9962 45.4222H73.0418V71.7136H75.8638ZM22.9168 41.4222C24.0214 41.4222 24.9168 42.3176 24.9168 43.4222V54.5485H40.7213C41.8259 54.5485 42.7213 55.4439 42.7213 56.5485C42.7213 57.6531 41.8259 58.5485 40.7213 58.5485H22.9168H17.4168C16.3123 58.5485 15.4168 57.6531 15.4168 56.5485C15.4168 55.4439 16.3123 54.5485 17.4168 54.5485H20.9168V43.4222C20.9168 42.3176 21.8123 41.4222 22.9168 41.4222ZM9.4585 45.9465C9.4585 44.8419 10.3539 43.9465 11.4585 43.9465H17.8399C18.9445 43.9465 19.8399 44.8419 19.8399 45.9465C19.8399 47.051 18.9445 47.9465 17.8399 47.9465H11.4585C10.3539 47.9465 9.4585 47.051 9.4585 45.9465ZM43.5418 78.5032C46.5575 78.5032 48.7085 76.2023 48.7085 73.7186C48.7085 71.2351 46.5575 68.9341 43.5418 68.9341C40.5261 68.9341 38.3752 71.2351 38.3752 73.7186C38.3752 76.2023 40.5261 78.5032 43.5418 78.5032ZM89.9585 73.7137C89.9585 76.1973 87.8075 78.4982 84.7918 78.4982C81.7761 78.4982 79.6252 76.1973 79.6252 73.7137C79.6252 71.2301 81.7761 68.9291 84.7918 68.9291C87.8075 68.9291 89.9585 71.2301 89.9585 73.7137Z" fill="#689C36"/>
</svg>
