<svg width="24" height="24" viewBox="0 0 24 24" fill="none" xmlns="http://www.w3.org/2000/svg">
<g clip-path="url(#clip0_1054_20973)">
<path fill-rule="evenodd" clip-rule="evenodd" d="M4.34318 0C3.96256 0 3.61494 0.216072 3.44647 0.557375L0.0985324 7.33991C0.0305831 7.47757 -0.00476074 7.62902 -0.00476074 7.78253H0.995239C-0.00476074 7.78253 -0.00476074 7.78289 -0.00476074 7.78326V7.78405L-0.00475591 7.78582L-0.00473762 7.79011L-0.00463724 7.80169L-0.00401706 7.83644C-0.00335485 7.86459 -0.00210875 7.90263 0.000230491 7.94928C0.00489795 8.04237 0.0139801 8.17101 0.0317284 8.32477C0.0667955 8.62855 0.137768 9.04887 0.284993 9.49384C0.511607 10.1788 0.979024 11.0776 1.90835 11.5652V22.9128C1.90835 23.4651 2.35606 23.9128 2.90835 23.9128H6.25628H10.0825H21.0829C21.6351 23.9128 22.0829 23.4651 22.0829 22.9128V11.5652C23.0122 11.0776 23.4796 10.1788 23.7062 9.49384C23.8534 9.04887 23.9244 8.62855 23.9595 8.32477C23.9772 8.17101 23.9863 8.04237 23.991 7.94928C23.9933 7.90263 23.9946 7.86459 23.9952 7.83644L23.9958 7.80169L23.9959 7.79011L23.996 7.78582L23.996 7.78405L23.996 7.78326C23.996 7.78289 23.996 7.78253 22.996 7.78253H23.996C23.996 7.62902 23.9606 7.47757 23.8927 7.33991L20.5447 0.557375C20.3763 0.216072 20.0286 0 19.648 0H4.34318ZM4.96476 2L2.60404 6.78253H6.25628H11.9956H17.7349H21.3872L19.0264 2H4.96476ZM2.18376 8.86561C2.17459 8.8379 2.16586 8.81019 2.15753 8.78253H5.0509C5.03183 8.83218 5.01109 8.88182 4.98852 8.93106C4.8602 9.21101 4.68719 9.44801 4.45749 9.61506C4.23849 9.77432 3.91021 9.91293 3.38662 9.91293C3.27806 9.91293 3.18547 9.90278 3.1065 9.88681C2.67137 9.79885 2.37782 9.45213 2.18376 8.86561ZM5.6338 11.2326C5.87704 11.0557 6.0826 10.8565 6.25628 10.6475C6.42996 10.8565 6.63552 11.0557 6.87877 11.2326C7.46686 11.6602 8.2147 11.9129 9.12594 11.9129C10.0372 11.9129 10.785 11.6602 11.3731 11.2326C11.6164 11.0557 11.8219 10.8565 11.9956 10.6475C12.1693 10.8565 12.3748 11.0557 12.6181 11.2326C13.2062 11.6602 13.954 11.9129 14.8653 11.9129C15.7765 11.9129 16.5243 11.6602 17.1124 11.2326C17.3557 11.0557 17.5612 10.8565 17.7349 10.6475C17.9086 10.8565 18.1142 11.0557 18.3574 11.2326C18.8291 11.5756 19.4037 11.8061 20.0829 11.8839V21.9128H11.0825V15.0868H10.0825C11.0825 15.0868 11.0825 15.0859 11.0825 15.085L11.0825 15.0832L11.0825 15.0794L11.0824 15.0715L11.082 15.0542C11.0816 15.0421 11.0811 15.0287 11.0802 15.0141C11.0784 14.9849 11.0753 14.9507 11.0703 14.9121C11.0602 14.8353 11.042 14.7396 11.009 14.6315C10.9423 14.4133 10.8154 14.1456 10.5805 13.8893C10.0922 13.3567 9.30354 13.0433 8.16939 13.0433C7.03524 13.0433 6.24659 13.3567 5.75828 13.8893C5.52337 14.1456 5.3965 14.4133 5.32983 14.6315C5.2968 14.7396 5.27855 14.8353 5.26849 14.9121C5.26344 14.9507 5.2604 14.9849 5.25861 15.0141C5.25772 15.0287 5.25714 15.0421 5.25678 15.0542L5.2564 15.0715L5.25631 15.0794L5.25629 15.0832L5.25628 15.085C5.25628 15.0859 5.25628 15.0868 6.25628 15.0868H5.25628V21.9128H3.90835V11.8839C4.58754 11.8061 5.16206 11.5756 5.6338 11.2326ZM13.2634 8.93106C13.2408 8.88182 13.22 8.83218 13.201 8.78253H16.5295C16.5105 8.83218 16.4897 8.88182 16.4672 8.93106C16.3388 9.21101 16.1658 9.44801 15.9361 9.61506C15.7171 9.77432 15.3888 9.91293 14.8653 9.91293C14.3417 9.91293 14.0134 9.77432 13.7944 9.61506C13.5647 9.44801 13.3917 9.21101 13.2634 8.93106ZM19.0027 8.93106C18.9801 8.88182 18.9594 8.83218 18.9403 8.78253H21.8337C21.8253 8.81019 21.8166 8.8379 21.8074 8.86561C21.6134 9.45213 21.3198 9.79885 20.8847 9.88681C20.8057 9.90278 20.7132 9.91293 20.6046 9.91293C20.081 9.91293 19.7527 9.77432 19.5337 9.61506C19.304 9.44801 19.131 9.21101 19.0027 8.93106ZM7.46166 8.78253H10.7902C10.7712 8.83218 10.7504 8.88182 10.7278 8.93106C10.5995 9.21101 10.4265 9.44801 10.1968 9.61506C9.97781 9.77432 9.64953 9.91293 9.12594 9.91293C8.60236 9.91293 8.27407 9.77432 8.05507 9.61506C7.82537 9.44801 7.65236 9.21101 7.52405 8.93106C7.50148 8.88182 7.48073 8.83218 7.46166 8.78253ZM9.0825 15.2204V21.9128H7.25628V15.2204C7.28067 15.2024 7.32639 15.1748 7.4051 15.1462C7.54085 15.0968 7.77937 15.0433 8.16939 15.0433C8.55941 15.0433 8.79793 15.0968 8.93367 15.1462C9.01239 15.1748 9.05811 15.2024 9.0825 15.2204ZM13.4314 13.0437C12.8791 13.0437 12.4314 13.4914 12.4314 14.0437V18.2188C12.4314 18.7711 12.8791 19.2188 13.4314 19.2188H17.7359C18.2882 19.2188 18.7359 18.7711 18.7359 18.2188V14.0437C18.7359 13.4914 18.2882 13.0437 17.7359 13.0437H13.4314ZM14.4314 17.2188V15.0437H16.7359V17.2188H14.4314Z" fill="#689C36"/>
</g>
<defs>
<clipPath id="clip0_1054_20973">
<rect width="24" height="24" fill="white"/>
</clipPath>
</defs>
</svg>
