<svg width="33" height="38" viewBox="0 0 33 38" fill="none" xmlns="http://www.w3.org/2000/svg">
<path d="M12.4802 32.0052C12.4802 32.4008 12.3629 32.7874 12.1432 33.1163C11.9234 33.4452 11.611 33.7016 11.2456 33.8529C10.8801 34.0043 10.478 34.0439 10.09 33.9668C9.70208 33.8896 9.34572 33.6991 9.06601 33.4194C8.78631 33.1397 8.59582 32.7833 8.51865 32.3954C8.44148 32.0074 8.48109 31.6053 8.63247 31.2398C8.78384 30.8744 9.04019 30.562 9.36908 30.3422C9.69798 30.1225 10.0847 30.0052 10.4802 30.0052C11.0107 30.0052 11.5194 30.2159 11.8944 30.591C12.2695 30.966 12.4802 31.4748 12.4802 32.0052ZM23.4802 30.0052C23.0847 30.0052 22.698 30.1225 22.3691 30.3422C22.0402 30.562 21.7838 30.8744 21.6325 31.2398C21.4811 31.6053 21.4415 32.0074 21.5187 32.3954C21.5958 32.7833 21.7863 33.1397 22.066 33.4194C22.3457 33.6991 22.7021 33.8896 23.09 33.9668C23.478 34.0439 23.8801 34.0043 24.2456 33.8529C24.611 33.7016 24.9234 33.4452 25.1432 33.1163C25.3629 32.7874 25.4802 32.4008 25.4802 32.0052C25.4802 31.4748 25.2695 30.966 24.8944 30.591C24.5194 30.2159 24.0107 30.0052 23.4802 30.0052ZM29.2852 13.4114C29.1922 13.2854 29.0709 13.183 28.9311 13.1124C28.7913 13.0419 28.6368 13.0051 28.4802 13.0052H6.52022L5.50647 9.45519C5.38549 9.03812 5.13268 8.67145 4.78589 8.41006C4.4391 8.14867 4.01699 8.00663 3.58272 8.00519H1.48022C1.21501 8.00519 0.960654 8.11054 0.773118 8.29808C0.585581 8.48562 0.480225 8.73997 0.480225 9.00519C0.480225 9.2704 0.585581 9.52476 0.773118 9.71229C0.960654 9.89983 1.21501 10.0052 1.48022 10.0052H3.58272L8.10522 25.8289C8.28621 26.4546 8.66499 27.0047 9.18486 27.3971C9.70472 27.7894 10.3377 28.0027 10.989 28.0052H23.0027C23.6448 28.0074 24.2705 27.8026 24.7871 27.4212C25.3036 27.0398 25.6834 26.502 25.8702 25.8877L29.4365 14.2989C29.4824 14.1495 29.4926 13.9913 29.4664 13.8372C29.4401 13.6831 29.3781 13.5372 29.2852 13.4114Z" fill="#689C36"/>
<g clip-path="url(#clip0_4_18)">
<path d="M17 2.69232V8.43751" stroke="#689C36" stroke-width="1.5" stroke-linecap="round" stroke-linejoin="round"/>
<path d="M14.1875 5.625L17 8.4375L19.8125 5.625" stroke="#689C36" stroke-width="1.5" stroke-linecap="round" stroke-linejoin="round"/>
</g>
<defs>
<clipPath id="clip0_4_18">
<rect width="10" height="10" fill="white" transform="translate(12)"/>
</clipPath>
</defs>
</svg>
